<?xml version="1.0" standalone="no"?><!DOCTYPE svg PUBLIC "-//W3C//DTD SVG 1.1//EN" "http://www.w3.org/Graphics/SVG/1.1/DTD/svg11.dtd"><svg t="1546069863736" class="icon" style="" viewBox="0 0 1024 1024" version="1.1" xmlns="http://www.w3.org/2000/svg" p-id="12749" xmlns:xlink="http://www.w3.org/1999/xlink" width="200" height="200"><defs><style type="text/css"></style></defs><path d="M928 160H96c-17.7 0-32 14.3-32 32v160h896V192c0-17.7-14.3-32-32-32zM64 832c0 17.7 14.3 32 32 32h832c17.7 0 32-14.3 32-32V440H64v392z m579-184c0-4.4 3.6-8 8-8h165c4.4 0 8 3.6 8 8v72c0 4.4-3.6 8-8 8H651c-4.4 0-8-3.6-8-8v-72z" p-id="12750" fill="#ffffff"></path></svg>