<?xml version="1.0" standalone="no"?><!DOCTYPE svg PUBLIC "-//W3C//DTD SVG 1.1//EN" "http://www.w3.org/Graphics/SVG/1.1/DTD/svg11.dtd"><svg t="1545979509478" class="icon" style="" viewBox="0 0 1024 1024" version="1.1" xmlns="http://www.w3.org/2000/svg" p-id="3837" xmlns:xlink="http://www.w3.org/1999/xlink" width="200" height="200"><defs><style type="text/css"></style></defs><path d="M832 474.4c37.6-12.8 64-48.8 64-90.4 0-5.6-30.4-241.6-30.4-241.6-0.8-8-8-14.4-16-14.4H174.4c-8 0-15.2 6.4-16 14.4 0 0-30.4 236.8-30.4 241.6 0 41.6 26.4 77.6 64 90.4V880c0 8.8 7.2 16 16 16h608c8.8 0 16-7.2 16-16V474.4zM720.8 192l21.6 192h-32l-21.6-192h32zM592 192l7.2 192h-32L560 192h32z m-160 0h32l-7.2 192h-32l7.2-192z m-128.8 0h32l-21.6 192h-32l21.6-192zM608 832H416V672h192v160z m160-288H256v-69.6c15.2-5.6 29.6-15.2 40-27.2 17.6 20 43.2 32.8 72 32.8s54.4-12.8 72-32.8c17.6 20 43.2 32.8 72 32.8s54.4-12.8 72-32.8c17.6 20 43.2 32.8 72 32.8s54.4-12.8 72-32.8c10.4 12 24.8 21.6 40 27.2V544z" p-id="3838" fill="#707070"></path></svg>