<?xml version="1.0" standalone="no"?><!DOCTYPE svg PUBLIC "-//W3C//DTD SVG 1.1//EN" "http://www.w3.org/Graphics/SVG/1.1/DTD/svg11.dtd"><svg t="1545964146874" class="icon" style="" viewBox="0 0 1024 1024" version="1.1" xmlns="http://www.w3.org/2000/svg" p-id="3789" xmlns:xlink="http://www.w3.org/1999/xlink" width="200" height="200"><defs><style type="text/css"></style></defs><path d="M865.6 142.4c-0.8-8-8-14.4-16-14.4H174.4c-8 0-15.2 6.4-16 14.4 0 0-30.4 236.8-30.4 241.6 0 41.6 26.4 77.6 64 90.4V880c0 8.8 7.2 16 16 16h608c8.8 0 16-7.2 16-16V474.4c37.6-12.8 64-48.8 64-90.4 0-5.6-30.4-241.6-30.4-241.6zM424 385.6c-12.8 3.2-24 9.6-32 19.2-3.2 4-11.2 11.2-24 11.2s-20-7.2-24-11.2c-8-8.8-18.4-16-30.4-19.2L335.2 192H432l-8 193.6zM560 192l8 193.6a66.4 66.4 0 0 0-32 19.2c-3.2 4-11.2 11.2-24 11.2s-20-7.2-24-11.2c-8-9.6-19.2-16-32-19.2l8-192.8 96-0.8z m40 193.6L592 192h96.8l21.6 193.6c-12 3.2-22.4 9.6-30.4 19.2-3.2 4-11.2 11.2-24 11.2s-20-7.2-24-11.2a66.4 66.4 0 0 0-32-19.2z m-352 19.2c-4 4-11.2 11.2-24 11.2-16.8 0-30.4-12.8-32-29.6 2.4-19.2 14.4-115.2 24-194.4h87.2l-21.6 192.8c-12.8 3.2-24.8 10.4-33.6 20zM576 832H448V704h128v128z m192 0H640V640H384v192H256V474.4c15.2-5.6 29.6-15.2 40-27.2 17.6 20 43.2 32.8 72 32.8s54.4-12.8 72-32.8c17.6 20 43.2 32.8 72 32.8s54.4-12.8 72-32.8c17.6 20 43.2 32.8 72 32.8s54.4-12.8 72-32.8c10.4 12 24.8 21.6 40 27.2V832z m32-416c-12.8 0-20-7.2-24-11.2a68.96 68.96 0 0 0-33.6-20L720.8 192H808c10.4 78.4 22.4 175.2 24 194.4-0.8 16.8-15.2 29.6-32 29.6z" p-id="3790" fill="#ea9518"></path></svg>